:SAMPLES-PER-SECOND 30
:FULLY-SPECIFIED
:DEGREES
546
root  46.606 34.8236 7.44005 156.879 81.7043 173.954
RightUpLeg  -20.2236 3.17797 -5.96825
RightLeg  46.2528 12.7679 13.6106
RightFoot  -5.62517 -0.0869173 0.975945
RightToes  6.35927e-011 1.30204e-014 -6.03759e-014
Spine  24.1618 -3.15228 11.3774
Spine1  -5.67355 0.770945 -11.7298
HEad  -32.8654 0.841904 -0.895418
LeftShoulder1  1.64366 -3.07946 -18.3979
LeftArm  -25.3796 -52.0657 -46.0009
LeftForeArm  11.5726 -40.2613 -8.72466
LeftHand  -0.178874 2.83543 7.68634
RightShoulder  0.406973 1.00032 0.651501
RightArm  -62.8497 47.4226 6.88404
RightForeArm  2.59054 31.6558 6.77894
RightHand  0.772131 4.71535 8.5863
LeftUpLeg  -18.4775 1.62029 4.49369
LeftLeg  63.059 -0.818505 -1.25171
LeftFoot  -15.6086 0.039127 -1.33576
LeftToes  -7.16024e-010 4.79583e-011 -5.98286e-011
547
root  46.8503 35.1243 7.36381 148.456 82.5304 165.039
RightUpLeg  -19.5832 4.61539 -6.65699
RightLeg  44.9511 12.7974 13.0513
RightFoot  -5.45323 -0.0682533 0.599302
RightToes  6.35927e-011 1.30204e-014 -6.03759e-014
Spine  24.019 -2.81508 10.6854
Spine1  -6.31603 1.03693 -13.3911
HEad  -31.8726 1.41778 -1.29506
LeftShoulder1  1.78141 -3.69244 -18.1691
LeftArm  -23.7455 -51.5381 -45.8073
LeftForeArm  7.06924 -38.1299 -8.3611
LeftHand  -0.186977 2.3161 6.76447
RightShoulder  0.437183 1.33509 0.671929
RightArm  -55.7668 49.5687 12.1469
RightForeArm  -4.64964 28.7488 6.46962
RightHand  0.557278 2.696 7.60741
LeftUpLeg  -15.4211 0.0684596 4.54073
LeftLeg  54.5431 1.45957 2.77848
LeftFoot  -15.5849 0.041347 -1.3918
LeftToes  -7.16024e-010 4.79583e-011 -5.98286e-011
548
root  47.0031 35.3602 7.26405 141.637 83.1997 157.519
RightUpLeg  -19.2671 5.87096 -7.34474
RightLeg  43.4595 13.1977 12.7858
RightFoot  -6.08619 -0.0938194 1.12281
RightToes  6.35927e-011 1.30204e-014 -6.03759e-014
Spine  22.8864 -2.39378 9.3791
Spine1  -5.68231 1.14919 -13.4798
HEad  -29.9259 2.10534 -2.00558
LeftShoulder1  1.87546 -4.06361 -18.1994
LeftArm  -22.3377 -49.7712 -45.8399
LeftForeArm  4.70321 -36.4413 -8.00785
LeftHand  -0.194454 1.71575 5.95119
RightShoulder  0.488526 1.67406 1.12628
RightArm  -46.5374 50.2637 20.801
RightForeArm  -14.825 29.109 7.07115
RightHand  -0.113778 2.34067 -1.16263
LeftUpLeg  -12.4954 -0.680563 4.59827
LeftLeg  46.8781 1.78967 2.52448
LeftFoot  -16.1098 -0.0698514 -3.95706
LeftToes  -7.16024e-010 4.79583e-011 -5.98286e-011
549
root  47.0186 35.4867 7.19962 139.749 83.1964 155.173
RightUpLeg  -19.3527 5.09446 -7.96924
RightLeg  42.5808 13.5693 12.7517
RightFoot  -6.93908 -0.18657 3.66592
RightToes  6.35927e-011 1.30204e-014 -6.03759e-014
Spine  21.6138 -1.87131 6.92383
Spine1  -3.98288 0.998788 -11.3175
HEad  -28.8959 2.25689 -3.08343
LeftShoulder1  2.00341 -4.35214 -18.976
LeftArm  -19.6795 -47.1971 -46.7806
LeftForeArm  -0.108313 -34.3044 -7.66845
LeftHand  -0.167264 1.8319 5.22182
RightShoulder  0.559167 1.81997 2.35028
RightArm  -36.6694 48.7002 31.2969
RightForeArm  -23.1305 30.1508 7.71313
RightHand  -0.632162 4.87095 -7.66118
LeftUpLeg  -11.3828 0.328921 4.78681
LeftLeg  43.6563 0.127383 0.517235
LeftFoot  -16.7599 -0.156705 -5.46208
LeftToes  -7.16024e-010 4.79583e-011 -5.98286e-011
550
root  46.8531 35.4625 7.19129 142.843 82.4323 157.948
RightUpLeg  -19.9845 1.95946 -8.63426
RightLeg  42.62 13.6488 12.8432
RightFoot  -8.94837 -0.233087 8.85046
RightToes  6.35927e-011 1.30204e-014 -6.03759e-014
Spine  21.813 -1.40901 4.04884
Spine1  -2.45618 0.625487 -8.45493
HEad  -29.1715 1.90126 -4.14683
LeftShoulder1  2.08455 -4.15095 -20.8499
LeftArm  -14.8237 -43.0413 -48.4529
LeftForeArm  -6.55759 -34.9392 -8.21979
LeftHand  -0.122596 2.66179 4.75288
RightShoulder  0.641462 1.41748 5.27367
RightArm  -28.0921 43.8329 40.1384
RightForeArm  -26.1253 32.8933 8.58484
RightHand  -0.295844 3.17353 -4.15399
LeftUpLeg  -12.4616 1.92861 4.89204
LeftLeg  44.3071 -1.28187 -0.9284
LeftFoot  -16.2329 -0.0840803 -4.18425
LeftToes  -7.16024e-010 4.79583e-011 -5.98286e-011
551
root  46.5005 35.2777 7.23008 148.772 81.2397 163.102
RightUpLeg  -21.6313 -1.23632 -9.26972
RightLeg  43.1057 13.7263 13.1308
RightFoot  -12.5378 0.0426954 13.1107
RightToes  6.35927e-011 1.30204e-014 -6.03759e-014
Spine  23.9683 -1.10729 2.30189
Spine1  -1.6271 0.365337 -6.33318
HEad  -31.2955 1.35958 -4.87074
LeftShoulder1  2.07537 -3.52724 -23.2588
LeftArm  -10.6895 -36.5848 -50.3259
LeftForeArm  -7.69443 -40.5939 -10.1007
LeftHand  -0.103227 3.22167 4.78925
RightShoulder  0.710771 0.567651 10.2864
RightArm  -22.9119 35.6778 44.9223
RightForeArm  -26.7453 40.0884 10.9419
RightHand  -0.100735 0.8689 -2.05057
LeftUpLeg  -15.1338 2.23289 4.90276
LeftLeg  45.7569 -1.69491 -1.43527
LeftFoot  -14.8875 0.0162939 -2.3814
LeftToes  -7.16024e-010 4.79583e-011 -5.98286e-011
552
root  45.9501 35.048 7.37007 157.402 79.7596 170.574
RightUpLeg  -24.1284 -1.23283 -9.76253
RightLeg  43.5865 13.5743 13.1961
RightFoot  -15.4151 0.350296 12.8535
RightToes  6.35927e-011 1.30204e-014 -6.03759e-014
Spine  27.864 -0.983758 1.89245
Spine1  -1.16004 0.186775 -4.26626
HEad  -35.1898 0.47293 -5.89089
LeftShoulder1  2.12054 -3.18211 -25.5455
LeftArm  -9.71371 -29.4743 -51.6666
LeftForeArm  -2.71688 -47.8146 -12.5628
LeftHand  -0.117605 3.13035 5.35085
RightShoulder  0.711063 -0.398226 16.3402
RightArm  -21.8581 26.3843 46.6425
RightForeArm  -20.0635 50.9255 15.3557
RightHand  -0.153012 2.1692 -2.52542
LeftUpLeg  -18.4957 1.441 5.4431
LeftLeg  46.5522 -2.31954 -2.19074
LeftFoot  -13.8602 0.0377689 -2.09881
LeftToes  -7.16024e-010 4.79583e-011 -5.98286e-011
553
root  45.2103 34.7897 7.70644 164.583 78.0962 176.029
RightUpLeg  -27.9598 3.32828 -10.941
RightLeg  45.7472 12.6339 13.2512
RightFoot  -15.7883 0.319041 10.917
RightToes  6.35927e-011 1.30204e-014 -6.03759e-014
Spine  32.6431 -0.722671 1.37775
Spine1  -0.934731 0.00491419 -1.63905
HEad  -40.246 -1.329 -7.74897
LeftShoulder1  2.27772 -3.35785 -27.0893
LeftArm  -11.1885 -25.0547 -52.1558
LeftForeArm  1.51113 -51.9486 -14.2739
LeftHand  -0.154078 2.73552 6.2825
RightShoulder  0.608636 -1.31116 21.6488
RightArm  -22.8887 20.0736 47.1086
RightForeArm  -9.17024 60.2299 20.9843
RightHand  -0.192983 2.82819 -2.94609
LeftUpLeg  -22.7891 1.40362 6.41236
LeftLeg  47.3817 -3.58689 -3.73639
LeftFoot  -13.4937 0.0224287 -3.08903
LeftToes  -7.16024e-010 4.79583e-011 -5.98286e-011
